<svg fill="rgba(255,255,255,0.4)" xmlns="http://www.w3.org/2000/svg" xmlns:xlink="http://www.w3.org/1999/xlink" version="1.1" x="0px" y="0px" viewBox="0 0 64 64" enable-background="new 0 0 64 64" xml:space="preserve"><g><path d="M33.768,22.864c0.053-0.08,0.104-0.161,0.154-0.245c0.463-0.755,0.799-1.595,0.98-2.493l1.838-0.22v-2.609l-1.838-0.222   c-0.201-0.995-0.594-1.921-1.135-2.737l1.143-1.458l-0.922-0.923l-0.922-0.921l-0.64,0.503L31.61,12.18   c-0.818-0.543-1.744-0.936-2.74-1.135l-0.221-1.839h-2.607l-0.223,1.839c-0.154,0.03-0.305,0.067-0.455,0.106   c-0.031,0.009-0.064,0.019-0.096,0.026c-0.131,0.037-0.262,0.078-0.389,0.121c-0.018,0.006-0.033,0.011-0.051,0.017   c-0.621,0.216-1.209,0.505-1.748,0.864l-1.457-1.144L19.78,12.88l1.145,1.458c-0.201,0.299-0.379,0.614-0.535,0.942   c-0.002,0.001-0.002,0.002-0.002,0.004c-0.063,0.132-0.123,0.266-0.178,0.401c-0.012,0.032-0.023,0.063-0.037,0.096   c-0.041,0.1-0.078,0.204-0.115,0.309c-0.016,0.045-0.029,0.091-0.045,0.138c-0.031,0.093-0.059,0.189-0.086,0.283   c-0.014,0.049-0.027,0.097-0.039,0.146c-0.031,0.115-0.059,0.232-0.082,0.35c-0.006,0.022-0.014,0.045-0.016,0.069l-1.839,0.222   v2.609l1.839,0.22c0.029,0.154,0.066,0.307,0.107,0.457c0.008,0.031,0.018,0.063,0.025,0.095c0.037,0.13,0.076,0.263,0.121,0.391   c0.006,0.016,0.01,0.032,0.016,0.05c0.107,0.309,0.234,0.608,0.377,0.898c0,0.002,0,0.002,0,0.002   c0.146,0.292,0.309,0.575,0.488,0.848l-1.145,1.458l1.844,1.843l1.459-1.144c0.424,0.281,0.875,0.522,1.352,0.716   c0.025,0.01,0.051,0.02,0.074,0.029c0.109,0.044,0.221,0.085,0.334,0.123c0.039,0.014,0.078,0.026,0.119,0.04   c0.102,0.034,0.205,0.063,0.307,0.093c0.043,0.011,0.084,0.022,0.125,0.035c0.131,0.033,0.264,0.063,0.396,0.093   c0.01,0.001,0.021,0.003,0.029,0.005l0.223,1.839h2.607l0.221-1.839c0.127-0.024,0.25-0.053,0.371-0.083   c0.855-0.217,1.654-0.576,2.369-1.051l1.457,1.144l0.613-0.615l1.23-1.228l-0.246-0.316L33.768,22.864z M27.344,23.791   c-0.16,0-0.32-0.009-0.48-0.025c-0.092-0.009-0.18-0.022-0.268-0.036c-0.063-0.008-0.121-0.016-0.18-0.025   c-0.119-0.023-0.236-0.049-0.354-0.078c-0.02-0.007-0.041-0.012-0.061-0.017c-0.133-0.037-0.264-0.074-0.391-0.122   c-1.508-0.535-2.695-1.744-3.195-3.269c-0.029-0.091-0.055-0.184-0.08-0.278c-0.016-0.057-0.031-0.113-0.043-0.17   c-0.02-0.082-0.035-0.165-0.051-0.248s-0.027-0.167-0.039-0.252c-0.008-0.064-0.018-0.131-0.023-0.195   c-0.014-0.156-0.025-0.314-0.025-0.474c0-0.001,0-0.001,0-0.003c0-0.161,0.012-0.32,0.025-0.479   c0.008-0.093,0.023-0.182,0.035-0.273c0.008-0.057,0.018-0.115,0.027-0.173c0.021-0.12,0.049-0.239,0.078-0.355   c0.006-0.02,0.012-0.04,0.016-0.059c0.037-0.132,0.078-0.263,0.121-0.391v-0.002c0.535-1.508,1.746-2.694,3.271-3.194   c0.09-0.03,0.184-0.055,0.277-0.081c0.057-0.015,0.113-0.03,0.17-0.044c0.082-0.018,0.166-0.034,0.248-0.05   c0.084-0.015,0.166-0.027,0.252-0.037c0.064-0.011,0.129-0.019,0.195-0.025c0.156-0.015,0.314-0.023,0.473-0.023   c1.418,0,2.699,0.567,3.637,1.488c0.01,0.011,0.023,0.02,0.035,0.03c0.01,0.012,0.02,0.025,0.029,0.036   c0.92,0.936,1.49,2.218,1.49,3.635C32.536,21.467,30.211,23.791,27.344,23.791z"></path><path d="M27.344,14.427c-2.305,0-4.174,1.87-4.174,4.175c0,2.306,1.869,4.175,4.174,4.175c2.307,0,4.176-1.869,4.176-4.175   C31.52,16.297,29.651,14.427,27.344,14.427z M27.344,20.554c-1.078,0-1.951-0.873-1.951-1.952c0-1.078,0.873-1.952,1.951-1.952   c1.08,0,1.953,0.874,1.953,1.952C29.297,19.681,28.424,20.554,27.344,20.554z"></path><path d="M47.09,26.862c0.02-0.067,0.037-0.134,0.055-0.201c0.156-0.613,0.211-1.259,0.145-1.911l1.211-0.537l-0.551-1.784   l-1.303,0.237c-0.348-0.64-0.809-1.19-1.354-1.636l0.475-1.236l-0.824-0.438l-0.824-0.435L43.787,19.4l-0.424,0.61   c-0.672-0.198-1.389-0.272-2.111-0.198l-0.539-1.211l-1.783,0.55l0.236,1.304c-0.1,0.054-0.195,0.11-0.289,0.169   c-0.02,0.014-0.041,0.026-0.061,0.039c-0.082,0.052-0.162,0.105-0.24,0.162c-0.01,0.009-0.021,0.016-0.031,0.023   c-0.379,0.279-0.719,0.601-1.012,0.959l-1.238-0.477l-0.873,1.652l1.092,0.755c-0.076,0.247-0.131,0.499-0.168,0.756   c-0.002,0-0.002,0.002-0.002,0.002c-0.016,0.105-0.027,0.209-0.035,0.314c-0.004,0.023-0.004,0.049-0.006,0.071   c-0.008,0.078-0.01,0.157-0.014,0.235c-0.002,0.036-0.002,0.07-0.002,0.104c-0.002,0.071-0.002,0.142,0.002,0.212   c0,0.037,0,0.073,0.002,0.106c0.004,0.085,0.01,0.172,0.018,0.256c0.002,0.018,0,0.036,0.004,0.054l-1.209,0.539l0.549,1.783   l1.303-0.236c0.053,0.099,0.111,0.195,0.17,0.288c0.012,0.021,0.025,0.041,0.039,0.061c0.053,0.081,0.107,0.162,0.164,0.242   c0.006,0.008,0.012,0.02,0.021,0.029c0.137,0.19,0.287,0.367,0.447,0.535c0,0.001,0,0.001,0,0.003   c0.16,0.168,0.332,0.327,0.512,0.476l-0.475,1.238l1.648,0.871l0.756-1.09c0.35,0.104,0.709,0.173,1.076,0.205   c0.018,0.002,0.039,0.002,0.057,0.005c0.084,0.005,0.168,0.01,0.254,0.013c0.031,0.002,0.061,0.002,0.09,0.004   c0.078,0,0.154,0,0.23-0.004c0.029,0,0.061-0.001,0.09-0.001c0.098-0.003,0.195-0.012,0.293-0.02   c0.006-0.002,0.014-0.002,0.021-0.003L42.889,32l1.783-0.55l-0.234-1.305c0.078-0.043,0.156-0.089,0.234-0.134   c0.539-0.33,1.008-0.744,1.398-1.219l1.236,0.474l0.291-0.549l0.58-1.1l-0.234-0.163L47.09,26.862z M42.895,28.849   c-0.111,0.033-0.223,0.062-0.334,0.084c-0.066,0.014-0.129,0.021-0.191,0.032c-0.043,0.007-0.086,0.014-0.129,0.021   c-0.084,0.01-0.172,0.016-0.258,0.021c-0.016,0-0.029,0-0.045,0c-0.098,0.003-0.195,0.005-0.291,0   c-1.145-0.047-2.213-0.625-2.875-1.562c-0.039-0.055-0.076-0.114-0.113-0.173c-0.023-0.035-0.045-0.071-0.066-0.108   c-0.029-0.051-0.059-0.104-0.086-0.158s-0.055-0.108-0.08-0.164c-0.02-0.042-0.039-0.085-0.057-0.129   c-0.043-0.104-0.084-0.21-0.117-0.319v-0.001c-0.033-0.111-0.061-0.221-0.084-0.332c-0.014-0.064-0.023-0.13-0.033-0.195   c-0.006-0.041-0.014-0.081-0.018-0.123c-0.012-0.086-0.018-0.175-0.021-0.261c0-0.015-0.002-0.029-0.002-0.042   c-0.002-0.1-0.002-0.195,0-0.293c0.049-1.144,0.625-2.211,1.563-2.875c0.057-0.041,0.115-0.074,0.174-0.114   c0.035-0.021,0.07-0.044,0.107-0.064c0.053-0.029,0.105-0.059,0.158-0.086c0.055-0.029,0.109-0.055,0.166-0.08   c0.041-0.02,0.082-0.041,0.127-0.059c0.104-0.041,0.211-0.081,0.318-0.115c0.967-0.3,1.965-0.182,2.799,0.25   c0.01,0.006,0.021,0.01,0.031,0.017c0.01,0.004,0.02,0.011,0.027,0.016c0.828,0.447,1.486,1.204,1.785,2.172   C45.953,26.165,44.854,28.245,42.895,28.849z"></path><path d="M40.922,22.444c-1.578,0.486-2.461,2.159-1.975,3.734c0.484,1.578,2.158,2.461,3.732,1.975   c1.578-0.484,2.461-2.155,1.977-3.732C44.17,22.845,42.498,21.96,40.922,22.444z M42.213,26.636   c-0.738,0.227-1.52-0.188-1.748-0.924c-0.227-0.739,0.188-1.519,0.924-1.746c0.738-0.228,1.52,0.186,1.748,0.924   C43.363,25.625,42.949,26.407,42.213,26.636z"></path><path d="M52.469,34.086l-0.012,0.011c1.625-3.248,2.557-6.951,2.557-10.896C55.014,10.389,45.301,0,33.318,0   c-3.88,0-7.437,1.235-10.666,3.013c-6.665,3.669-11.227,9.886-10.93,18.14c-0.055,0.677-0.097,1.357-0.097,2.049   c0,2.132,0.29,4.187,0.793,6.147c-0.105,0.644-0.294,1.307-0.605,2.009c-1.25,2.817-5.886,9.042,0.366,8.871   c0.246,1.373-0.776,2.835,0.896,3.318c-1.01,1.482-0.508,1.575-0.24,2.719c-0.006-0.026,0.984,0.808,1.109,1.1   c0.215,0.501-0.063,1.459-0.006,1.999c0.357,3.365,1.645,3.892,5.244,3.795c2.344-0.063,4.338-1.435,6.623-1.396   c0.844,0.016,1.424,0.24,1.959,0.492C32.227,55.429,23.897,64,23.897,64h29.634C43.754,55.836,52.469,34.086,52.469,34.086z    M32.909,40.231c-10.045,0-18.187-8.143-18.187-18.186c0-10.045,8.142-18.188,18.187-18.188c10.042,0,18.185,8.143,18.185,18.188   C51.094,32.089,42.951,40.231,32.909,40.231z"></path></g></svg>
